<?xml version="1.0" encoding="utf-8"?>
<!-- Generator: Adobe Illustrator 25.4.1, SVG Export Plug-In . SVG Version: 6.00 Build 0)  -->
<svg width="25px" height="25px" version="1.1" id="Layer_1" xmlns="http://www.w3.org/2000/svg" xmlns:xlink="http://www.w3.org/1999/xlink" x="0px" y="0px"
     viewBox="0 0 264.8 277.9" style="enable-background:new 0 0 264.8 277.9;" xml:space="preserve">
<style type="text/css">
	.st0{fill:#0088CE;}
	.st1{fill:#F5B500;}
	.st2{fill:#FFC901;}
	.st3{fill:#FCFBD2;}
	.st4{fill:#FFFFFF;}
	.st5{fill:#FF9900;}
</style>
    <g>
	<g id="Design">
		<polygon class="st0" points="132.5,9.2 237.7,84.4 132.5,183 27.3,84.4 		"/>
        <polygon class="st1" points="132.5,9.2 237.7,84.4 132.5,163.7 27.3,84.4 		"/>
        <polygon class="st2" points="237.7,84.4 229.2,90.8 132.5,21.7 35.8,90.8 27.3,84.4 132.5,9.3 		"/>
        <polygon class="st2" points="161.4,159.1 237.7,231 237.7,85.6 		"/>
        <polygon class="st1" points="175.7,157.8 237.7,231 237.7,85.6 		"/>
        <polygon class="st1" points="104.5,159.2 27.3,231 236.7,231 159.4,157.8 132.5,183 		"/>
        <polygon class="st2" points="28.4,87 104.5,159.2 27.3,231 		"/>
        <polygon class="st1" points="89,157.8 27.1,231 27.1,85.6 		"/>
        <polygon class="st2" points="31.1,229.9 105.2,168.5 132,193.6 159.3,169.8 236.7,232.1 159.4,157.8 132.5,183 104.5,160.4 		"/>
        <path class="st3" d="M50,33.1c0,0,166.4-0.8,166.4,0v71.6l-84,78.3l-84.8-79.5L50,33.1z"/>
        <polygon class="st4" points="215.2,37.3 60.1,42.7 60.1,100.5 132,181.7 48.7,104.1 48.7,32.7 215.2,33 		"/>
        <path class="st5" d="M166.9,36.4H98.1c-1.5,0-2.8-1.2-2.8-2.7c0-0.9,0.4-1.8,1.2-2.3L130.9,7c1-0.7,2.3-0.7,3.2,0l34.4,24.3
			c1.3,0.9,1.6,2.6,0.7,3.9C168.6,35.9,167.8,36.4,166.9,36.4L166.9,36.4z M106.9,30.8h51.2l-25.6-18.1L106.9,30.8z"/>
        <path class="st5" d="M26.6,234.9c-0.4,0-0.8-0.1-1.1-0.2c-1-0.5-1.7-1.5-1.6-2.6V84.6c0-1.5,1.3-2.8,2.8-2.8
			c0.7,0,1.4,0.3,1.9,0.8l78.3,73.7c1.1,1.1,1.2,2.8,0.1,3.9c0,0-0.1,0.1-0.1,0.1l-78.3,73.7C28,234.6,27.3,234.9,26.6,234.9z
			 M29.4,91.1v134.6l71.4-67.3L29.4,91.1z"/>
        <path class="st5" d="M48.6,108.1c-0.7,0-1.4-0.3-1.9-0.8l-22-20.7c-0.6-0.5-0.9-1.3-0.9-2v-0.4c0-0.9,0.4-1.7,1.2-2.2l22-15.6
			c1.2-0.9,3-0.6,3.9,0.7c0.3,0.5,0.5,1,0.5,1.6v36.8c0,1.1-0.6,2.1-1.6,2.6C49.4,108.1,49,108.1,48.6,108.1z M30.7,84.7l15.1,14.2
			V74L30.7,84.7z"/>
        <path class="st5" d="M26.6,87.4c-0.7,0-1.5-0.3-2-0.8l-0.2-0.2c-1.1-1.1-1.1-2.9,0-3.9c1.1-1.1,2.9-1.1,3.9,0l0,0l0.2,0.2
			c1.1,1.1,1.1,2.9,0,3.9C28,87.1,27.3,87.4,26.6,87.4L26.6,87.4z"/>
        <path class="st5" d="M216.4,107.7c-1.5,0-2.8-1.2-2.8-2.8c0-0.8,0.3-1.5,0.9-2l21.8-20.5c1.1-1.1,2.9-1.1,3.9,0
			c1.1,1.1,1.1,2.9,0,3.9c0,0-0.1,0.1-0.1,0.1L218.3,107C217.8,107.5,217.1,107.7,216.4,107.7z"/>
        <path class="st5" d="M159.5,161.2c-0.6,0-1.3-0.2-1.8-0.6l-0.2-0.1c-1.2-1-1.3-2.7-0.4-3.9c1-1.2,2.7-1.3,3.9-0.4l0,0l0.2,0.1
			c1.2,1,1.3,2.7,0.4,3.9C161.2,160.9,160.4,161.2,159.5,161.2L159.5,161.2z"/>
        <path class="st5" d="M238.4,234.9H26.6c-1.5,0-2.8-1.3-2.8-2.8c0-0.8,0.3-1.5,0.9-2l78.3-73.8c1.1-1,2.7-1,3.8,0l25.5,24
			l25.4-23.9c1.1-1,2.7-1,3.8,0l34.5,32.3l44.3,41.4c1.1,1,1.2,2.8,0.1,3.9C239.9,234.5,239.1,234.9,238.4,234.9L238.4,234.9z
			 M33.6,229.3h197.8l-71.8-67l-25.4,23.9c-1.1,1-2.7,1-3.8,0l-25.5-24L33.6,229.3z"/>
        <path class="st5" d="M238.4,234.9c-0.7,0-1.4-0.3-1.9-0.7l-44.3-41.3l-34.5-32.3c-0.6-0.5-0.9-1.3-0.9-2c0-0.8,0.3-1.5,0.9-2
			l0.9-0.8l55.1-51.8V68.6c0-1.5,1.3-2.8,2.8-2.8c0.6,0,1.1,0.2,1.6,0.5l22,15.6c0.7,0.5,1.2,1.4,1.2,2.3v147.9
			c0,1.1-0.6,2.1-1.6,2.6C239.2,234.8,238.8,234.9,238.4,234.9z M163.6,158.4l72,67.2v-140L219.2,74v31c0,0.8-0.3,1.5-0.9,2
			L163.6,158.4z"/>
        <path class="st5" d="M132.3,187c-0.7,0-1.4-0.3-1.9-0.8l-27.4-25.8l-56.3-53c-0.6-0.5-0.9-1.3-0.9-2V33.6c0-1.5,1.2-2.8,2.8-2.8
			h167.8c1.5,0,2.8,1.2,2.8,2.8v71.4c0,0.8-0.3,1.5-0.9,2l-84.1,79.2C133.7,186.7,133,187,132.3,187z M51.4,104.2l55.4,52.1l25.5,24
			l81.3-76.6V36.3H51.4V104.2z"/>
	</g>
</g>
</svg>
