<svg width="25px" height="25px" xmlns="http://www.w3.org/2000/svg" viewBox="0 0 264.79 277.9"><g style="isolation:isolate"><g id="Design"><polygon points="132.52 3.39 260.53 94.83 132.52 214.83 4.57 94.83 132.52 3.39" style="fill:#0088ce"/><polygon points="132.52 3.39 260.53 94.83 132.55 191.36 4.57 94.83 132.52 3.39" style="fill:#f5b500"/><polygon points="260.53 94.83 250.22 102.6 132.52 18.51 14.87 102.6 4.56 94.83 132.52 3.4 260.53 94.83" style="fill:#ffc901"/><polygon points="167.76 185.69 260.53 273.25 260.53 96.31 167.76 185.69" style="fill:#ffc901"/><polygon points="185.13 184.12 260.53 273.25 260.53 96.31 185.13 184.12" style="fill:#f5b500"/><polygon points="98.44 185.88 4.57 273.25 259.39 273.25 165.28 184.12 132.52 214.83 98.44 185.88" style="fill:#f5b500"/><polygon points="5.89 97.98 98.44 185.88 4.57 273.25 5.89 97.98" style="fill:#ffc901"/><polygon points="79.66 184.12 4.26 273.25 4.26 96.31 79.66 184.12" style="fill:#f5b500"/><polygon points="9.17 271.91 99.34 197.18 131.98 227.68 165.11 198.7 259.39 274.51 165.28 184.12 132.52 214.83 98.44 187.31 9.17 271.91" style="fill:#ffc901"/><path d="M53.49,41.7S256,40.7,256,41.7v87.17L153.84,224.13,50.65,127.35Z" transform="translate(-21.32 -9.3)" style="fill:#ffffdc"/><polygon points="233.22 37.55 44.53 44.13 44.53 114.37 131.98 213.23 30.54 118.81 30.54 31.96 233.22 32.27 233.22 37.55" style="fill:#7dc3e8;mix-blend-mode:screen"/><path d="M195.69,45.69H112a3.39,3.39,0,0,1-2-6.16L151.88,9.92a3.4,3.4,0,0,1,3.92,0l41.85,29.61a3.39,3.39,0,0,1-2,6.16Zm-73-6.78H185L153.84,16.84Z" transform="translate(-21.32 -9.3)" style="fill:#f90"/><path d="M25,287.2a3.32,3.32,0,0,1-1.34-.28,3.38,3.38,0,0,1-2-3.11V104.4a3.39,3.39,0,0,1,5.71-2.46l95.25,89.66a3.39,3.39,0,0,1,0,4.94L27.31,286.27A3.35,3.35,0,0,1,25,287.2Zm3.39-174.95V276l86.92-81.89Z" transform="translate(-21.32 -9.3)" style="fill:#f90"/><path d="M51.79,133a3.36,3.36,0,0,1-2.32-.92l-26.8-25.24a3.39,3.39,0,0,1-1.07-2.47v-.52A3.36,3.36,0,0,1,23,101.12l26.81-19a3.38,3.38,0,0,1,5.34,2.76v44.74a3.39,3.39,0,0,1-2,3.11A3.54,3.54,0,0,1,51.79,133ZM30,104.48,48.4,121.8V91.46Z" transform="translate(-21.32 -9.3)" style="fill:#f90"/><path d="M25,107.79a3.38,3.38,0,0,1-2.4-1l-.28-.28a3.39,3.39,0,0,1,4.8-4.79l.28.28a3.39,3.39,0,0,1-2.4,5.78Z" transform="translate(-21.32 -9.3)" style="fill:#f90"/><path d="M255.92,132.51a3.38,3.38,0,0,1-2.32-5.85l26.56-25a3.39,3.39,0,1,1,4.65,4.93l-26.57,25A3.33,3.33,0,0,1,255.92,132.51Z" transform="translate(-21.32 -9.3)" style="fill:#f90"/><path d="M186.78,197.63a3.34,3.34,0,0,1-2.16-.78l-.21-.17a3.39,3.39,0,1,1,4.33-5.22l.2.17a3.39,3.39,0,0,1-2.16,6Z" transform="translate(-21.32 -9.3)" style="fill:#f90"/><path d="M282.72,287.2H25a3.4,3.4,0,0,1-2.33-5.86l95.26-89.74a3.39,3.39,0,0,1,4.65,0l31,29.25,30.86-29.08a3.38,3.38,0,0,1,4.63,0l42,39.25L285,281.33a3.39,3.39,0,0,1-2.32,5.87ZM33.53,280.42h240.6l-87.34-81.53L155.92,228a3.39,3.39,0,0,1-4.65,0l-31-29.26Z" transform="translate(-21.32 -9.3)" style="fill:#f90"/><path d="M282.73,287.2a3.42,3.42,0,0,1-2.32-.91L226.49,236l-42-39.25a3.36,3.36,0,0,1-1.08-2.47,3.41,3.41,0,0,1,1.07-2.48l1.11-1,67-63.07V84.91a3.39,3.39,0,0,1,5.35-2.76l26.8,19a3.36,3.36,0,0,1,1.43,2.76V283.81a3.4,3.4,0,0,1-2,3.11A3.59,3.59,0,0,1,282.73,287.2Zm-91-93L279.34,276V105.64l-20-14.18v37.66a3.35,3.35,0,0,1-1.07,2.47Z" transform="translate(-21.32 -9.3)" style="fill:#f90"/><path d="M153.6,228.91a3.42,3.42,0,0,1-2.33-.92l-33.35-31.45L49.47,132.11a3.38,3.38,0,0,1-1.07-2.46V42.3a3.39,3.39,0,0,1,3.39-3.39H255.92a3.39,3.39,0,0,1,3.39,3.39v86.82a3.35,3.35,0,0,1-1.07,2.47L155.92,228A3.4,3.4,0,0,1,153.6,228.91ZM55.18,128.18l67.38,63.42,31,29.26,98.93-93.2v-82H55.18Z" transform="translate(-21.32 -9.3)" style="fill:#f90"/></g></g></svg>